<svg xmlns="http://www.w3.org/2000/svg" xmlns:xlink="http://www.w3.org/1999/xlink" width="300" height="300" viewBox="0 0 300 300" fill="none"><rect x="0" y="0" width="0" height="0" fill="rgba(249, 249, 249, 1)" /><g opacity="1"  transform="translate(0 0)  rotate(0)"><rect fill="#141414" opacity="1" transform="translate(0 0)  rotate(NaN)" x="0" y="0" width="300" height="300" /><mask id="bg-mask-0" fill="white"><use transform="translate(0 0)  rotate(NaN)" xlink:href="#path_0"></use></mask><g mask="url(#bg-mask-0)" ><g opacity="1"  transform="translate(90 60)  rotate(0)"><g opacity="1"  transform="translate(0 0)  rotate(0)"><g opacity="1"  transform="translate(0 0)  rotate(0)"><path id="Shape" fill-rule="evenodd" fill="url(#linear_0)" opacity="1" d="M58.7527 103.044L16.9427 61.2035C16.2427 60.4935 16.2427 59.4335 16.9427 58.7335L58.7527 16.8835C59.4527 16.1835 60.5227 16.1835 61.2127 16.8835L77.8627 33.5435C80.3827 36.0635 84.4627 36.0635 86.9827 33.5435C89.5027 31.0135 89.5027 26.9235 86.9827 24.4035L65.0427 2.43354C62.2127 -0.316455 57.6627 -0.296455 54.8527 2.50354L2.50267 54.9035C-0.31733 57.7335 -0.31733 62.2735 2.50267 65.0935L54.8527 117.494C57.6827 120.314 62.2127 120.314 65.0327 117.494L86.9827 95.5235C89.5027 92.9935 89.5027 88.9035 86.9827 86.3935C84.4627 83.8635 80.3827 83.8635 77.8627 86.3935L61.2127 103.044C60.5227 103.734 59.4527 103.734 58.7527 103.044Z"></path><path id="Shape" fill-rule="evenodd" fill="url(#linear_1)" opacity="1" d="M54.8527 117.494C57.6827 120.314 62.2127 120.314 65.0327 117.494L86.9827 95.5235C89.5027 92.9935 89.5027 88.9035 86.9827 86.3935C84.4627 83.8635 80.3827 83.8635 77.8627 86.3935L61.2127 103.044C60.5227 103.734 59.4527 103.734 58.7527 103.044L16.9427 61.2035C16.2427 60.4935 16.2427 59.4335 16.9427 58.7335L58.7527 16.8835C60.5027 15.3835 63.3427 12.3335 67.5227 11.6135C70.6327 11.0735 74.0227 12.2435 77.7127 15.1035C75.2527 12.6535 71.0227 8.42354 65.0427 2.43354C62.2127 -0.316455 57.6627 -0.296455 54.8527 2.50354L2.50267 54.9035C-0.31733 57.7335 -0.31733 62.2735 2.50267 65.0935L54.8527 117.494Z"></path></g><path id="Shape" fill-rule="evenodd" fill="url(#linear_2)" opacity="1" d="M117.375 55.1232L101.045 38.8332C98.5145 36.3132 94.4245 36.3132 91.9045 38.8432C89.3845 41.3632 89.3845 45.4532 91.9045 47.9732L102.935 59.0132C103.635 59.7232 103.635 60.7832 102.935 61.4832L92.0545 72.3732C89.5345 74.8932 89.5345 78.9932 92.0545 81.5132C94.5745 84.0332 98.6645 84.0332 101.185 81.5132L117.375 65.3032C120.195 62.4832 120.195 57.9432 117.375 55.1232Z"></path></g><path id="Combined-Shape" fill-rule="evenodd" fill="url(#linear_3)" opacity="1" d="M74.3431 60.2635C74.3431 52.4535 68.0131 46.1135 60.2131 46.1135C52.4031 46.1135 46.0731 52.4535 46.0731 60.2635C46.0731 68.0735 52.4031 74.4135 60.2131 74.4135C68.0131 74.4135 74.3431 68.0735 74.3431 60.2635Z"></path></g><path id="Ant-Design" fill-rule="evenodd" style="fill:#FFFFFF" opacity="1" d="M209.683,200.413c-1.72,0 -3.13,-1.41 -3.13,-3.13c0,-1.73 1.41,-3.14 3.13,-3.14c1.72,0 3.129,1.41 3.129,3.14c0,1.72 -1.409,3.13 -3.129,3.13zM51.16,220.79h-12.69l-3.33,9.52h-5.14l12.51,-34h4.61l12.51,34h-5.14zM133.933,196.31c10.06,0 16.03,6.33 16.03,16.99c0,10.69 -5.95,17.01 -16.03,17.01h-11.76v-34zM103.271,230.212l-0.31,0.05c-0.89,0.16 -1.64,0.24 -2.38,0.24c-5.31,0 -7.53,-2.06 -7.53,-7.01v-14.71h-4v-4.06h4v-6.43h4.7v6.43h5.52v4.06h-5.52v13.69c0,2.73 0.94,3.81 3.31,3.81c0.67,0 1.05,-0.02 1.81,-0.09l0.4,-0.04zM127.051,225.842h6.6c7.19,0 11.35,-4.57 11.35,-12.5c0,-7.93 -4.19,-12.56 -11.35,-12.56h-6.6zM49.6814,216.528l-4.87,-13.89l-4.86,13.89zM80.287,230.316v-15.49c0,-4.28 -1.73,-6.23 -5.47,-6.23c-3.78,0 -6.15,2.52 -6.15,6.64v15.08h-4.69v-25.59h4.51v3.47c1.43,-2.56 3.94,-3.91 7.46,-3.91c5.77,0 9.04,3.46 9.04,9.57v16.46zM172.274,223.356l0.1,-0.21h4.67l-0.13,0.47c-1.26,4.47 -5.27,7.13 -10.8,7.13c-7.08,0 -11.55,-5.14 -11.55,-13.2c0,-8.03 4.53,-13.26 11.55,-13.26c6.9,0 11.14,4.93 11.14,12.86v1.89h-17.83c0.27,4.63 2.85,7.47 6.78,7.47c3.04,0 5.09,-1.08 6.07,-3.15zM196.768,211.416c-0.5,-1.87 -2.35,-3.03 -5.1,-3.03c-2.83,0 -4.87,1.42 -4.87,3.35c0,1.47 1.2,2.43 4.02,3.12l3.82,0.92c4.9,1.19 7.2,3.38 7.2,7.09c0,4.62 -4.4,7.88 -10.31,7.88c-5.68,0 -9.66,-2.76 -10.12,-7.1l-0.04,-0.41h4.75l0.08,0.26c0.64,2.01 2.55,3.17 5.47,3.17c3.17,0 5.36,-1.47 5.36,-3.5c0,-1.51 -1.15,-2.54 -3.65,-3.14l-4.26,-1.04c-4.84,-1.18 -7.04,-3.34 -7.04,-7.09c0,-4.35 4.16,-7.61 9.62,-7.61c5.36,0 9.15,2.7 9.7,6.98l0.06,0.42h-4.62zM228.293,204.286c3.35,0 6.35,1.54 7.96,4.02v-3.58h4.51v25.65c0,5.79 -4.47,9.48 -11.41,9.48c-6.04,0 -10.13,-2.73 -10.77,-7.12l-0.06,-0.42h4.91l0.06,0.3c0.41,1.87 2.53,3.04 5.86,3.04c4.25,0 6.71,-2.03 6.71,-5.48v-4.18c-1.67,2.53 -4.46,3.95 -7.77,3.95c-6.58,0 -10.77,-5.08 -10.77,-12.8c0,-7.71 4.24,-12.86 10.77,-12.86zM268.415,230.316h-4.7v-15.49c0,-4.28 -1.73,-6.23 -5.47,-6.23c-3.78,0 -6.15,2.52 -6.15,6.64v15.08h-4.69v-25.59h4.51v3.47c1.43,-2.56 3.94,-3.91 7.46,-3.91c5.77,0 9.04,3.46 9.04,9.57zM207.335,230.314v-25.59h4.69v25.59zM159.452,215.098h12.88c-0.22,-4 -2.66,-6.57 -6.26,-6.57c-3.63,0 -6.2,2.57 -6.62,6.57zM236.154,217.147c0,-5.27 -2.67,-8.55 -6.99,-8.55c-4.29,0 -6.81,3.21 -6.81,8.55c0,5.34 2.52,8.56 6.81,8.56c4.33,0 6.99,-3.27 6.99,-8.56z"></path></g></g><defs><rect id="path_0" x="0" y="0" width="300" height="300" /><linearGradient id="linear_0" x1="62.102327300000006%" y1="22.34071246858941%" x2="108.19718%" y2="43.28630340089206%" gradientUnits="objectBoundingBox"><stop offset="0" stop-color="#4285EB" stop-opacity="1" /><stop offset="1" stop-color="#2EC7FF" stop-opacity="1" /></linearGradient><linearGradient id="linear_1" x1="69.644116%" y1="22.34071246858941%" x2="54.04289750000001%" y2="82.3374212133487%" gradientUnits="objectBoundingBox"><stop offset="0" stop-color="#29CDFF" stop-opacity="1" /><stop offset="0.378600687" stop-color="#148EFF" stop-opacity="1" /><stop offset="1" stop-color="#0A60FF" stop-opacity="1" /></linearGradient><linearGradient id="linear_2" x1="69.6908165%" y1="24.5511647245377%" x2="16.7228981%" y2="77.23376315001408%" gradientUnits="objectBoundingBox"><stop offset="0" stop-color="#FA816E" stop-opacity="1" /><stop offset="0.41472606" stop-color="#F74A5C" stop-opacity="1" /><stop offset="1" stop-color="#F51D2C" stop-opacity="1" /></linearGradient><linearGradient id="linear_3" x1="68.08251367776171%" y1="-35.6905737%" x2="30.489156854917198%" y2="114.942679%" gradientUnits="objectBoundingBox"><stop offset="0" stop-color="#FA8E7D" stop-opacity="1" /><stop offset="0.512635191" stop-color="#F74A5C" stop-opacity="1" /><stop offset="1" stop-color="#F51D2C" stop-opacity="1" /></linearGradient></defs></svg>